<svg width="1728" height="300" viewBox="0 0 1728 300" fill="none" xmlns="http://www.w3.org/2000/svg">
<g clip-path="url(#clip0_2197_68658)">
<rect width="1728" height="300" fill="url(#paint0_linear_2197_68658)"/>
<rect x="1395.75" y="37.75" width="111.75" height="111.75" transform="rotate(180 1395.75 37.75)" fill="#710188"/>
<rect x="1395.75" y="37.75" width="111.75" height="55.875" transform="rotate(180 1395.75 37.75)" fill="#710188"/>
<rect width="111.75" height="111.75" transform="matrix(-1 0 0 1 1507.5 -74)" fill="#D200AB"/>
<rect width="111.75" height="111.75" transform="matrix(1 0 0 -1 1507.5 37.75)" fill="#A230BF"/>
<rect x="1619.25" y="-74" width="111.75" height="111.75" fill="#D200AB"/>
<path d="M1619.25 -74C1619.25 -59.3248 1622.14 -44.7933 1627.76 -31.2351C1633.37 -17.677 1641.6 -5.35776 1651.98 5.01919C1662.36 15.3961 1674.68 23.6276 1688.24 29.2435C1701.79 34.8595 1716.32 37.75 1731 37.75L1731 -74H1619.25Z" fill="#A230BF"/>
<rect x="1395.75" y="149.5" width="111.75" height="111.75" transform="rotate(180 1395.75 149.5)" fill="#710188"/>
<rect width="111.75" height="111.75" transform="matrix(-1 0 0 1 1507.5 37.75)" fill="#710188"/>
<path d="M1395.75 37.75C1395.75 52.4252 1398.64 66.9567 1404.26 80.5149C1409.87 94.073 1418.1 106.392 1428.48 116.769C1438.86 127.146 1451.18 135.378 1464.74 140.994C1478.29 146.61 1492.82 149.5 1507.5 149.5L1507.5 37.75H1395.75Z" fill="#D200AB"/>
<rect width="111.75" height="111.75" transform="matrix(1 0 0 -1 1507.5 149.5)" fill="#D200AB"/>
<path d="M1619.25 37.75C1619.25 52.4252 1616.36 66.9567 1610.74 80.5149C1605.13 94.073 1596.9 106.392 1586.52 116.769C1576.14 127.146 1563.82 135.378 1550.26 140.994C1536.71 146.61 1522.18 149.5 1507.5 149.5L1507.5 37.75H1619.25Z" fill="#A230BF"/>
<rect x="1619.25" y="37.75" width="111.75" height="111.75" fill="#D200AB"/>
<rect x="1619.25" y="93.625" width="111.75" height="55.875" fill="#710188"/>
<path d="M1675.13 37.75C1705.98 37.75 1731 62.7661 1731 93.625L1619.25 93.625C1619.25 62.7661 1644.27 37.75 1675.13 37.75Z" fill="#710188"/>
<rect x="1395.75" y="261.25" width="111.75" height="111.75" transform="rotate(180 1395.75 261.25)" fill="#710188"/>
<rect x="1395.75" y="261.25" width="111.75" height="55.875" transform="rotate(180 1395.75 261.25)" fill="#A230BF"/>
<path d="M1339.87 149.5C1309.02 149.5 1284 174.516 1284 205.375H1395.75C1395.75 174.516 1370.73 149.5 1339.87 149.5Z" fill="#A230BF"/>
<rect width="111.75" height="111.75" transform="matrix(-1 0 0 1 1507.5 149.5)" fill="#710188"/>
<path d="M1395.75 261.25C1395.75 246.575 1398.64 232.043 1404.26 218.485C1409.87 204.927 1418.1 192.608 1428.48 182.231C1438.86 171.854 1451.18 163.622 1464.74 158.006C1478.29 152.39 1492.82 149.5 1507.5 149.5L1507.5 261.25H1395.75Z" fill="#D200AB"/>
<rect width="111.75" height="111.75" transform="matrix(1 0 0 -1 1507.5 261.25)" fill="#D200AB"/>
<rect x="1619.25" y="149.5" width="111.75" height="111.75" fill="#710188"/>
<rect x="1395.75" y="373" width="111.75" height="111.75" transform="rotate(180 1395.75 373)" fill="#A230BF"/>
<rect width="111.75" height="111.75" transform="matrix(-1 0 0 1 1507.5 261.25)" fill="#D200AB"/>
<rect width="111.75" height="111.75" transform="matrix(1 0 0 -1 1507.5 373)" fill="#D200AB"/>
<path d="M1563.37 261.25C1532.52 261.25 1507.5 286.266 1507.5 317.125H1619.25C1619.25 286.266 1594.23 261.25 1563.37 261.25Z" fill="#A230BF"/>
<rect x="1619.25" y="261.25" width="111.75" height="111.75" fill="#A230BF"/>
<rect x="1619.25" y="261.25" width="111.75" height="55.875" fill="#710188"/>
</g>
<defs>
<linearGradient id="paint0_linear_2197_68658" x1="22.5" y1="-4.85301e-07" x2="1706.5" y2="270" gradientUnits="userSpaceOnUse">
<stop offset="0.257807" stop-color="#561975"/>
<stop offset="0.742001" stop-color="#710188"/>
</linearGradient>
<clipPath id="clip0_2197_68658">
<rect width="1728" height="300" fill="white"/>
</clipPath>
</defs>
</svg>
